# Blender v2.83.4 OBJ File: 'room.blend'
# www.blender.org
mtllib ROOM_HOLOGRAM.mtl
o Circle_Circle.005
v -0.859818 0.310493 4.765800
v 0.017489 0.310493 4.847094
v -1.707249 0.310493 4.524684
v -2.495947 0.310493 4.131959
v -3.199052 0.310493 3.600999
v -3.792622 0.310493 2.949884
v -4.256444 0.310493 2.200787
v -4.574721 0.310493 1.379217
v -4.736616 0.310493 0.513154
v -4.736616 0.310493 -0.367912
v -4.574721 0.310493 -1.233976
v -4.256444 0.310493 -2.055544
v -3.792622 0.310493 -2.804642
v -3.199052 0.310493 -3.455758
v -2.495946 0.310494 -3.986719
v -1.707247 0.310494 -4.379443
v -0.859815 0.310494 -4.620558
v 0.017492 0.310494 -4.701852
v 0.894800 0.310494 -4.620557
v 1.742231 0.310494 -4.379441
v 2.530929 0.310494 -3.986716
v 3.234034 0.310493 -3.455754
v 3.827603 0.310493 -2.804638
v 4.291424 0.310493 -2.055541
v 4.609701 0.310493 -1.233971
v 4.771596 0.310493 -0.367906
v 4.771595 0.310493 0.513160
v 4.609698 0.310493 1.379224
v 4.291419 0.310493 2.200793
v 3.827597 0.310493 2.949890
v 3.234025 0.310493 3.601004
v 2.530918 0.310493 4.131964
v 1.742220 0.310493 4.524687
v 0.894787 0.310493 4.765801
v 0.017489 0.260589 4.847094
v 0.017489 0.156126 4.763612
v -0.844477 0.156126 4.683739
v -0.859818 0.260589 4.765800
v -1.677092 0.156126 4.446840
v -1.707249 0.260589 4.524684
v -2.451999 0.156126 4.060982
v -2.495947 0.260589 4.131959
v -3.142812 0.156126 3.539305
v -3.199052 0.260589 3.600999
v -3.726003 0.156126 2.899574
v -3.792622 0.260589 2.949884
v -4.181714 0.156127 2.163576
v -4.256444 0.260589 2.200787
v -4.494426 0.156127 1.356373
v -4.574721 0.260589 1.379217
v -4.653491 0.156127 0.505451
v -4.736616 0.260589 0.513154
v -4.653491 0.156127 -0.360209
v -4.736616 0.260589 -0.367912
v -4.494426 0.156127 -1.211131
v -4.574721 0.260589 -1.233976
v -4.181714 0.156127 -2.018333
v -4.256444 0.260590 -2.055544
v -3.726003 0.156127 -2.754332
v -3.792622 0.260590 -2.804642
v -3.142811 0.156127 -3.394064
v -3.199052 0.260590 -3.455758
v -2.451998 0.156127 -3.915741
v -2.495946 0.260590 -3.986719
v -1.677091 0.156127 -4.301599
v -1.707247 0.260590 -4.379443
v -0.844475 0.156127 -4.538498
v -0.859815 0.260590 -4.620558
v 0.017492 0.156127 -4.618371
v 0.017492 0.260590 -4.701852
v 0.879459 0.156127 -4.538496
v 0.894800 0.260590 -4.620557
v 1.712074 0.156127 -4.301597
v 1.742231 0.260590 -4.379441
v 2.486981 0.156127 -3.915738
v 2.530929 0.260590 -3.986716
v 3.177794 0.156127 -3.394060
v 3.234034 0.260590 -3.455754
v 3.760983 0.156127 -2.754330
v 3.827603 0.260590 -2.804638
v 4.216695 0.156127 -2.018328
v 4.291424 0.260590 -2.055541
v 4.529406 0.156127 -1.211126
v 4.609701 0.260589 -1.233971
v 4.688470 0.156127 -0.360204
v 4.771596 0.260589 -0.367906
v 4.688469 0.156127 0.505456
v 4.771595 0.260589 0.513160
v 4.529403 0.156127 1.356379
v 4.609698 0.260589 1.379224
v 4.216690 0.156127 2.163582
v 4.291419 0.260589 2.200793
v 3.760977 0.156126 2.899581
v 3.827597 0.260589 2.949890
v 3.177784 0.156126 3.539310
v 3.234025 0.260589 3.601004
v 2.486971 0.156126 4.060987
v 2.530918 0.260589 4.131964
v 1.712063 0.156126 4.446843
v 1.742220 0.260589 4.524687
v 0.879447 0.156126 4.683741
v 0.894787 0.260589 4.765801
vt 0.591874 0.991487
vt 0.500000 1.000000
vt 0.500000 1.000000
vt 0.591874 0.991487
vt 0.408125 0.991487
vt 0.319379 0.966236
vt 0.236784 0.925109
vt 0.163152 0.869504
vt 0.100991 0.801317
vt 0.052418 0.722869
vt 0.019087 0.636832
vt 0.002133 0.546134
vt 0.002133 0.453866
vt 0.019087 0.363169
vt 0.052418 0.277131
vt 0.100991 0.198683
vt 0.163152 0.130495
vt 0.236784 0.074891
vt 0.319379 0.033764
vt 0.408125 0.008513
vt 0.500000 0.000000
vt 0.591875 0.008514
vt 0.680621 0.033764
vt 0.763216 0.074892
vt 0.836848 0.130496
vt 0.899009 0.198683
vt 0.947582 0.277131
vt 0.980913 0.363169
vt 0.997867 0.453866
vt 0.997867 0.546135
vt 0.980913 0.636832
vt 0.947581 0.722870
vt 0.899008 0.801318
vt 0.836847 0.869505
vt 0.763215 0.925109
vt 0.680620 0.966236
vt 0.591875 0.008514
vt 0.680621 0.033764
vt 0.100991 0.801317
vt 0.052418 0.722869
vt 0.680620 0.966236
vt 0.763216 0.074892
vt 0.019087 0.636832
vt 0.836848 0.130496
vt 0.002133 0.546134
vt 0.408125 0.991487
vt 0.319379 0.966236
vt 0.899009 0.198683
vt 0.002133 0.453866
vt 0.947582 0.277131
vt 0.019087 0.363169
vt 0.980913 0.363169
vt 0.052418 0.277131
vt 0.997867 0.453866
vt 0.100991 0.198683
vt 0.997867 0.546135
vt 0.163152 0.130495
vt 0.980913 0.636832
vt 0.236784 0.074891
vt 0.947581 0.722870
vt 0.319379 0.033764
vt 0.500000 0.991258
vt 0.590267 0.982893
vt 0.677462 0.958084
vt 0.758613 0.917676
vt 0.830957 0.863044
vt 0.892032 0.796049
vt 0.939755 0.718973
vt 0.972504 0.634440
vt 0.989162 0.545328
vt 0.989162 0.454673
vt 0.972504 0.365561
vt 0.939756 0.281028
vt 0.892032 0.203951
vt 0.830958 0.136957
vt 0.758614 0.082325
vt 0.677463 0.041916
vt 0.590268 0.017107
vt 0.500000 0.008743
vt 0.409732 0.017107
vt 0.322538 0.041916
vt 0.241386 0.082324
vt 0.169042 0.136956
vt 0.107968 0.203951
vt 0.060244 0.281028
vt 0.027496 0.365561
vt 0.010838 0.454673
vt 0.010838 0.545327
vt 0.027496 0.634439
vt 0.060244 0.718972
vt 0.107968 0.796049
vt 0.169042 0.863044
vt 0.241386 0.917676
vt 0.322537 0.958084
vt 0.409732 0.982893
vt 0.899008 0.801318
vt 0.408125 0.008513
vt 0.236784 0.925109
vt 0.836847 0.869505
vt 0.500000 0.000000
vt 0.163152 0.869504
vt 0.763215 0.925109
vn -0.0923 0.0000 -0.9957
vn 0.0000 -1.0000 -0.0000
vn -0.2737 0.0000 0.9618
vn 0.8502 0.0000 -0.5264
vn -0.2737 0.0000 -0.9618
vn -0.4457 0.0000 0.8952
vn 0.9325 0.0000 -0.3612
vn -0.6026 0.0000 0.7980
vn 0.9830 0.0000 -0.1837
vn 0.2737 0.0000 -0.9618
vn -0.7390 0.0000 0.6737
vn 1.0000 0.0000 0.0000
vn -0.8502 0.0000 0.5264
vn 0.9830 0.0000 0.1837
vn -0.9325 0.0000 0.3612
vn 0.9325 0.0000 0.3612
vn -0.9830 0.0000 0.1837
vn 0.8502 0.0000 0.5264
vn -1.0000 0.0000 -0.0000
vn 0.7390 0.0000 0.6737
vn -0.9830 0.0000 -0.1838
vn 0.6026 0.0000 0.7980
vn -0.9325 0.0000 -0.3612
vn 0.4457 0.0000 0.8952
vn -0.0000 1.0000 0.0000
vn -0.8502 0.0000 -0.5264
vn 0.2737 0.0000 0.9618
vn 0.4457 0.0000 -0.8952
vn -0.7390 0.0000 -0.6737
vn 0.0923 0.0000 0.9957
vn 0.6026 0.0000 -0.7980
vn -0.6026 0.0000 -0.7980
vn -0.0923 0.0000 0.9957
vn 0.7390 0.0000 -0.6737
vn -0.4457 0.0000 -0.8952
vn 0.0722 0.6227 -0.7792
vn 0.2141 0.6227 -0.7526
vn 0.3488 0.6227 -0.7005
vn 0.4716 0.6227 -0.6244
vn 0.5783 0.6227 -0.5272
vn 0.6653 0.6227 -0.4119
vn 0.7296 0.6227 -0.2827
vn 0.7692 0.6227 -0.1438
vn 0.7825 0.6227 0.0000
vn 0.7692 0.6227 0.1438
vn 0.7297 0.6227 0.2827
vn 0.6653 0.6227 0.4119
vn 0.5783 0.6227 0.5272
vn 0.4716 0.6227 0.6244
vn 0.3488 0.6227 0.7005
vn 0.2141 0.6227 0.7526
vn 0.0722 0.6227 0.7792
vn -0.0722 0.6227 0.7792
vn -0.2141 0.6227 0.7526
vn -0.3488 0.6227 0.7005
vn -0.4716 0.6227 0.6244
vn -0.5783 0.6227 0.5272
vn -0.6653 0.6227 0.4119
vn -0.7297 0.6227 0.2827
vn -0.7692 0.6227 0.1438
vn -0.7825 0.6227 -0.0000
vn -0.7692 0.6227 -0.1438
vn -0.7296 0.6227 -0.2827
vn -0.6653 0.6227 -0.4119
vn -0.5783 0.6227 -0.5272
vn -0.4716 0.6227 -0.6244
vn -0.3488 0.6227 -0.7005
vn -0.2141 0.6227 -0.7526
vn -0.0722 0.6227 -0.7792
vn 0.0923 0.0000 -0.9957
usemtl None
s off
f 102/1/1 35/2/1 2/3/1 34/4/1
f 2/3/2 1/5/2 3/6/2 4/7/2 5/8/2 6/9/2 7/10/2 8/11/2 9/12/2 10/13/2 11/14/2 12/15/2 13/16/2 14/17/2 15/18/2 16/19/2 17/20/2 18/21/2 19/22/2 20/23/2 21/24/2 22/25/2 23/26/2 24/27/2 25/28/2 26/29/2 27/30/2 28/31/2 29/32/2 30/33/2 31/34/2 32/35/2 33/36/2 34/4/2
f 72/37/3 74/38/3 20/23/3 19/22/3
f 46/39/4 48/40/4 7/10/4 6/9/4
f 100/41/5 102/1/5 34/4/5 33/36/5
f 74/38/6 76/42/6 21/24/6 20/23/6
f 48/40/7 50/43/7 8/11/7 7/10/7
f 76/42/8 78/44/8 22/25/8 21/24/8
f 50/43/9 52/45/9 9/12/9 8/11/9
f 38/46/10 40/47/10 3/6/10 1/5/10
f 78/44/11 80/48/11 23/26/11 22/25/11
f 52/45/12 54/49/12 10/13/12 9/12/12
f 80/48/13 82/50/13 24/27/13 23/26/13
f 54/49/14 56/51/14 11/14/14 10/13/14
f 82/50/15 84/52/15 25/28/15 24/27/15
f 56/51/16 58/53/16 12/15/16 11/14/16
f 84/52/17 86/54/17 26/29/17 25/28/17
f 58/53/18 60/55/18 13/16/18 12/15/18
f 86/54/19 88/56/19 27/30/19 26/29/19
f 60/55/20 62/57/20 14/17/20 13/16/20
f 88/56/21 90/58/21 28/31/21 27/30/21
f 62/57/22 64/59/22 15/18/22 14/17/22
f 90/58/23 92/60/23 29/32/23 28/31/23
f 64/59/24 66/61/24 16/19/24 15/18/24
f 36/62/25 101/63/25 99/64/25 97/65/25 95/66/25 93/67/25 91/68/25 89/69/25 87/70/25 85/71/25 83/72/25 81/73/25 79/74/25 77/75/25 75/76/25 73/77/25 71/78/25 69/79/25 67/80/25 65/81/25 63/82/25 61/83/25 59/84/25 57/85/25 55/86/25 53/87/25 51/88/25 49/89/25 47/90/25 45/91/25 43/92/25 41/93/25 39/94/25 37/95/25
f 92/60/26 94/96/26 30/33/26 29/32/26
f 66/61/27 68/97/27 17/20/27 16/19/27
f 40/47/28 42/98/28 4/7/28 3/6/28
f 94/96/29 96/99/29 31/34/29 30/33/29
f 68/97/30 70/100/30 18/21/30 17/20/30
f 42/98/31 44/101/31 5/8/31 4/7/31
f 96/99/32 98/102/32 32/35/32 31/34/32
f 70/100/33 72/37/33 19/22/33 18/21/33
f 44/101/34 46/39/34 6/9/34 5/8/34
f 98/102/35 100/41/35 33/36/35 32/35/35
f 38/46/36 35/2/36 36/62/36 37/95/36
f 40/47/37 38/46/37 37/95/37 39/94/37
f 42/98/38 40/47/38 39/94/38 41/93/38
f 44/101/39 42/98/39 41/93/39 43/92/39
f 46/39/40 44/101/40 43/92/40 45/91/40
f 48/40/41 46/39/41 45/91/41 47/90/41
f 50/43/42 48/40/42 47/90/42 49/89/42
f 52/45/43 50/43/43 49/89/43 51/88/43
f 54/49/44 52/45/44 51/88/44 53/87/44
f 56/51/45 54/49/45 53/87/45 55/86/45
f 58/53/46 56/51/46 55/86/46 57/85/46
f 60/55/47 58/53/47 57/85/47 59/84/47
f 62/57/48 60/55/48 59/84/48 61/83/48
f 64/59/49 62/57/49 61/83/49 63/82/49
f 66/61/50 64/59/50 63/82/50 65/81/50
f 68/97/51 66/61/51 65/81/51 67/80/51
f 70/100/52 68/97/52 67/80/52 69/79/52
f 72/37/53 70/100/53 69/79/53 71/78/53
f 74/38/54 72/37/54 71/78/54 73/77/54
f 76/42/55 74/38/55 73/77/55 75/76/55
f 78/44/56 76/42/56 75/76/56 77/75/56
f 80/48/57 78/44/57 77/75/57 79/74/57
f 82/50/58 80/48/58 79/74/58 81/73/58
f 84/52/59 82/50/59 81/73/59 83/72/59
f 86/54/60 84/52/60 83/72/60 85/71/60
f 88/56/61 86/54/61 85/71/61 87/70/61
f 90/58/62 88/56/62 87/70/62 89/69/62
f 92/60/63 90/58/63 89/69/63 91/68/63
f 94/96/64 92/60/64 91/68/64 93/67/64
f 96/99/65 94/96/65 93/67/65 95/66/65
f 98/102/66 96/99/66 95/66/66 97/65/66
f 100/41/67 98/102/67 97/65/67 99/64/67
f 102/1/68 100/41/68 99/64/68 101/63/68
f 35/2/69 102/1/69 101/63/69 36/62/69
f 35/2/70 38/46/70 1/5/70 2/3/70
o Circle.001_Circle.006
v -0.884682 0.296286 -4.753572
v 0.017489 0.296286 -4.837171
v -1.756132 0.296286 -4.505624
v -2.567183 0.296286 -4.101768
v -3.290216 0.296286 -3.555759
v -3.900609 0.296286 -2.886190
v -4.377576 0.296286 -2.115862
v -4.704875 0.296286 -1.271007
v -4.871358 0.296286 -0.380398
v -4.871358 0.296286 0.525639
v -4.704875 0.296286 1.416249
v -4.377576 0.296286 2.261103
v -3.900609 0.296286 3.031431
v -3.290215 0.296286 3.701002
v -2.567182 0.296286 4.247011
v -1.756130 0.296286 4.650866
v -0.884680 0.296286 4.898815
v 0.017492 0.296286 4.982413
v 0.919665 0.296286 4.898813
v 1.791114 0.296286 4.650864
v 2.602165 0.296286 4.247008
v 3.325198 0.296286 3.700998
v 3.935590 0.296286 3.031428
v 4.412557 0.296286 2.261099
v 4.739854 0.296286 1.416244
v 4.906337 0.296286 0.525634
v 4.906336 0.296286 -0.380404
v 4.739851 0.296286 -1.271014
v 4.412552 0.296286 -2.115868
v 3.935583 0.296286 -2.886196
v 3.325189 0.296286 -3.555764
v 2.602154 0.296286 -4.101773
v 1.791102 0.296286 -4.505627
v 0.919652 0.296286 -4.753574
v 0.017489 0.346190 -4.837171
v 0.017489 0.450652 -4.751323
v -0.868907 0.450652 -4.669187
v -0.884682 0.346190 -4.753572
v -1.725120 0.450652 -4.425573
v -1.756132 0.346190 -4.505624
v -2.521990 0.450652 -4.028779
v -2.567183 0.346190 -4.101768
v -3.232381 0.450652 -3.492316
v -3.290216 0.346190 -3.555759
v -3.832102 0.450652 -2.834454
v -3.900609 0.346190 -2.886190
v -4.300728 0.450652 -2.077596
v -4.377576 0.346190 -2.115862
v -4.622304 0.450652 -1.247515
v -4.704875 0.346190 -1.271007
v -4.785876 0.450652 -0.372476
v -4.871358 0.346190 -0.380398
v -4.785876 0.450652 0.517718
v -4.871358 0.346190 0.525639
v -4.622304 0.450652 1.392757
v -4.704875 0.346190 1.416249
v -4.300728 0.450652 2.222837
v -4.377576 0.346190 2.261103
v -3.832102 0.450652 2.979696
v -3.900609 0.346190 3.031431
v -3.232380 0.450652 3.637559
v -3.290215 0.346190 3.701002
v -2.521988 0.450652 4.174022
v -2.567182 0.346190 4.247011
v -1.725119 0.450652 4.570816
v -1.756130 0.346190 4.650866
v -0.868905 0.450652 4.814429
v -0.884680 0.346190 4.898815
v 0.017492 0.450652 4.896565
v 0.017492 0.346190 4.982413
v 0.903889 0.450652 4.814427
v 0.919665 0.346190 4.898813
v 1.760102 0.450652 4.570813
v 1.791114 0.346190 4.650864
v 2.556972 0.450652 4.174019
v 2.602165 0.346190 4.247008
v 3.267364 0.450652 3.637555
v 3.325198 0.346190 3.700998
v 3.867082 0.450652 2.979694
v 3.935590 0.346190 3.031428
v 4.335710 0.450652 2.222832
v 4.412557 0.346190 2.261099
v 4.657284 0.450652 1.392752
v 4.739854 0.346190 1.416244
v 4.820856 0.450652 0.517712
v 4.906337 0.346190 0.525634
v 4.820855 0.450652 -0.372482
v 4.906336 0.346190 -0.380404
v 4.657280 0.450652 -1.247521
v 4.739851 0.346190 -1.271014
v 4.335704 0.450652 -2.077602
v 4.412552 0.346190 -2.115868
v 3.867075 0.450652 -2.834461
v 3.935583 0.346190 -2.886196
v 3.267354 0.450652 -3.492321
v 3.325189 0.346190 -3.555764
v 2.556961 0.450652 -4.028784
v 2.602154 0.346190 -4.101773
v 1.760090 0.450652 -4.425576
v 1.791102 0.346190 -4.505627
v 0.903877 0.450652 -4.669188
v 0.919652 0.346190 -4.753574
vt 0.591874 0.991487
vt 0.500000 1.000000
vt 0.500000 1.000000
vt 0.591874 0.991487
vt 0.408125 0.991487
vt 0.319379 0.966236
vt 0.236784 0.925109
vt 0.163152 0.869504
vt 0.100991 0.801317
vt 0.052418 0.722869
vt 0.019087 0.636832
vt 0.002133 0.546134
vt 0.002133 0.453866
vt 0.019087 0.363169
vt 0.052418 0.277131
vt 0.100991 0.198683
vt 0.163152 0.130495
vt 0.236784 0.074891
vt 0.319379 0.033764
vt 0.408125 0.008513
vt 0.500000 0.000000
vt 0.591875 0.008514
vt 0.680621 0.033764
vt 0.763216 0.074892
vt 0.836848 0.130496
vt 0.899009 0.198683
vt 0.947582 0.277131
vt 0.980913 0.363169
vt 0.997867 0.453866
vt 0.997867 0.546135
vt 0.980913 0.636832
vt 0.947581 0.722870
vt 0.899008 0.801318
vt 0.836847 0.869505
vt 0.763215 0.925109
vt 0.680620 0.966236
vt 0.591875 0.008514
vt 0.680621 0.033764
vt 0.100991 0.801317
vt 0.052418 0.722869
vt 0.680620 0.966236
vt 0.763216 0.074892
vt 0.019087 0.636832
vt 0.836848 0.130496
vt 0.002133 0.546134
vt 0.408125 0.991487
vt 0.319379 0.966236
vt 0.899009 0.198683
vt 0.002133 0.453866
vt 0.947582 0.277131
vt 0.019087 0.363169
vt 0.980913 0.363169
vt 0.052418 0.277131
vt 0.997867 0.453866
vt 0.100991 0.198683
vt 0.997867 0.546135
vt 0.163152 0.130495
vt 0.980913 0.636832
vt 0.236784 0.074891
vt 0.947581 0.722870
vt 0.319379 0.033764
vt 0.500000 0.991258
vt 0.590267 0.982893
vt 0.677462 0.958084
vt 0.758613 0.917676
vt 0.830957 0.863044
vt 0.892032 0.796049
vt 0.939755 0.718973
vt 0.972504 0.634440
vt 0.989162 0.545328
vt 0.989162 0.454673
vt 0.972504 0.365561
vt 0.939756 0.281028
vt 0.892032 0.203951
vt 0.830958 0.136957
vt 0.758614 0.082325
vt 0.677463 0.041916
vt 0.590268 0.017107
vt 0.500000 0.008743
vt 0.409732 0.017107
vt 0.322538 0.041916
vt 0.241386 0.082324
vt 0.169042 0.136956
vt 0.107968 0.203951
vt 0.060244 0.281028
vt 0.027496 0.365561
vt 0.010838 0.454673
vt 0.010838 0.545327
vt 0.027496 0.634439
vt 0.060244 0.718972
vt 0.107968 0.796049
vt 0.169042 0.863044
vt 0.241386 0.917676
vt 0.322537 0.958084
vt 0.409732 0.982893
vt 0.899008 0.801318
vt 0.408125 0.008513
vt 0.236784 0.925109
vt 0.836847 0.869505
vt 0.500000 0.000000
vt 0.163152 0.869504
vt 0.763215 0.925109
vn -0.0923 0.0000 0.9957
vn 0.0000 1.0000 0.0000
vn -0.2737 0.0000 -0.9618
vn 0.8502 0.0000 0.5264
vn -0.2737 0.0000 0.9618
vn -0.4457 0.0000 -0.8952
vn 0.9325 0.0000 0.3612
vn -0.6026 0.0000 -0.7980
vn 0.9830 0.0000 0.1837
vn 0.2737 0.0000 0.9618
vn -0.7390 0.0000 -0.6737
vn 1.0000 0.0000 0.0000
vn -0.8502 0.0000 -0.5264
vn 0.9830 0.0000 -0.1837
vn -0.9325 0.0000 -0.3612
vn 0.9325 0.0000 -0.3612
vn -0.9830 0.0000 -0.1837
vn 0.8502 0.0000 -0.5264
vn -1.0000 0.0000 0.0000
vn 0.7390 0.0000 -0.6737
vn -0.9830 0.0000 0.1838
vn 0.6026 0.0000 -0.7980
vn -0.9325 0.0000 0.3612
vn 0.4457 0.0000 -0.8952
vn 0.0000 -1.0000 -0.0000
vn -0.8502 0.0000 0.5264
vn 0.2737 0.0000 -0.9618
vn 0.4457 0.0000 0.8952
vn -0.7390 0.0000 0.6737
vn 0.0923 0.0000 -0.9957
vn 0.6026 0.0000 0.7980
vn -0.6026 0.0000 0.7980
vn -0.0923 0.0000 -0.9957
vn 0.7390 0.0000 0.6737
vn -0.4457 0.0000 0.8952
vn 0.0714 -0.6333 0.7706
vn 0.2118 -0.6333 0.7444
vn 0.3450 -0.6333 0.6928
vn 0.4664 -0.6333 0.6176
vn 0.5719 -0.6333 0.5214
vn 0.6580 -0.6333 0.4074
vn 0.7217 -0.6333 0.2796
vn 0.7607 -0.6333 0.1422
vn 0.7739 -0.6333 0.0000
vn 0.7607 -0.6333 -0.1422
vn 0.7217 -0.6333 -0.2796
vn 0.6580 -0.6333 -0.4074
vn 0.5719 -0.6333 -0.5214
vn 0.4664 -0.6333 -0.6176
vn 0.3450 -0.6333 -0.6928
vn 0.2118 -0.6333 -0.7444
vn 0.0714 -0.6333 -0.7706
vn -0.0714 -0.6333 -0.7706
vn -0.2118 -0.6333 -0.7444
vn -0.3450 -0.6333 -0.6928
vn -0.4664 -0.6333 -0.6176
vn -0.5719 -0.6333 -0.5214
vn -0.6580 -0.6333 -0.4074
vn -0.7217 -0.6333 -0.2796
vn -0.7607 -0.6333 -0.1422
vn -0.7739 -0.6333 0.0000
vn -0.7607 -0.6333 0.1422
vn -0.7217 -0.6333 0.2796
vn -0.6580 -0.6333 0.4074
vn -0.5719 -0.6333 0.5214
vn -0.4664 -0.6333 0.6176
vn -0.3450 -0.6333 0.6928
vn -0.2118 -0.6333 0.7444
vn -0.0714 -0.6333 0.7706
vn 0.0923 0.0000 0.9957
usemtl None
s off
f 204/103/71 137/104/71 104/105/71 136/106/71
f 104/105/72 103/107/72 105/108/72 106/109/72 107/110/72 108/111/72 109/112/72 110/113/72 111/114/72 112/115/72 113/116/72 114/117/72 115/118/72 116/119/72 117/120/72 118/121/72 119/122/72 120/123/72 121/124/72 122/125/72 123/126/72 124/127/72 125/128/72 126/129/72 127/130/72 128/131/72 129/132/72 130/133/72 131/134/72 132/135/72 133/136/72 134/137/72 135/138/72 136/106/72
f 174/139/73 176/140/73 122/125/73 121/124/73
f 148/141/74 150/142/74 109/112/74 108/111/74
f 202/143/75 204/103/75 136/106/75 135/138/75
f 176/140/76 178/144/76 123/126/76 122/125/76
f 150/142/77 152/145/77 110/113/77 109/112/77
f 178/144/78 180/146/78 124/127/78 123/126/78
f 152/145/79 154/147/79 111/114/79 110/113/79
f 140/148/80 142/149/80 105/108/80 103/107/80
f 180/146/81 182/150/81 125/128/81 124/127/81
f 154/147/82 156/151/82 112/115/82 111/114/82
f 182/150/83 184/152/83 126/129/83 125/128/83
f 156/151/84 158/153/84 113/116/84 112/115/84
f 184/152/85 186/154/85 127/130/85 126/129/85
f 158/153/86 160/155/86 114/117/86 113/116/86
f 186/154/87 188/156/87 128/131/87 127/130/87
f 160/155/88 162/157/88 115/118/88 114/117/88
f 188/156/89 190/158/89 129/132/89 128/131/89
f 162/157/90 164/159/90 116/119/90 115/118/90
f 190/158/91 192/160/91 130/133/91 129/132/91
f 164/159/92 166/161/92 117/120/92 116/119/92
f 192/160/93 194/162/93 131/134/93 130/133/93
f 166/161/94 168/163/94 118/121/94 117/120/94
f 138/164/95 203/165/95 201/166/95 199/167/95 197/168/95 195/169/95 193/170/95 191/171/95 189/172/95 187/173/95 185/174/95 183/175/95 181/176/95 179/177/95 177/178/95 175/179/95 173/180/95 171/181/95 169/182/95 167/183/95 165/184/95 163/185/95 161/186/95 159/187/95 157/188/95 155/189/95 153/190/95 151/191/95 149/192/95 147/193/95 145/194/95 143/195/95 141/196/95 139/197/95
f 194/162/96 196/198/96 132/135/96 131/134/96
f 168/163/97 170/199/97 119/122/97 118/121/97
f 142/149/98 144/200/98 106/109/98 105/108/98
f 196/198/99 198/201/99 133/136/99 132/135/99
f 170/199/100 172/202/100 120/123/100 119/122/100
f 144/200/101 146/203/101 107/110/101 106/109/101
f 198/201/102 200/204/102 134/137/102 133/136/102
f 172/202/103 174/139/103 121/124/103 120/123/103
f 146/203/104 148/141/104 108/111/104 107/110/104
f 200/204/105 202/143/105 135/138/105 134/137/105
f 140/148/106 137/104/106 138/164/106 139/197/106
f 142/149/107 140/148/107 139/197/107 141/196/107
f 144/200/108 142/149/108 141/196/108 143/195/108
f 146/203/109 144/200/109 143/195/109 145/194/109
f 148/141/110 146/203/110 145/194/110 147/193/110
f 150/142/111 148/141/111 147/193/111 149/192/111
f 152/145/112 150/142/112 149/192/112 151/191/112
f 154/147/113 152/145/113 151/191/113 153/190/113
f 156/151/114 154/147/114 153/190/114 155/189/114
f 158/153/115 156/151/115 155/189/115 157/188/115
f 160/155/116 158/153/116 157/188/116 159/187/116
f 162/157/117 160/155/117 159/187/117 161/186/117
f 164/159/118 162/157/118 161/186/118 163/185/118
f 166/161/119 164/159/119 163/185/119 165/184/119
f 168/163/120 166/161/120 165/184/120 167/183/120
f 170/199/121 168/163/121 167/183/121 169/182/121
f 172/202/122 170/199/122 169/182/122 171/181/122
f 174/139/123 172/202/123 171/181/123 173/180/123
f 176/140/124 174/139/124 173/180/124 175/179/124
f 178/144/125 176/140/125 175/179/125 177/178/125
f 180/146/126 178/144/126 177/178/126 179/177/126
f 182/150/127 180/146/127 179/177/127 181/176/127
f 184/152/128 182/150/128 181/176/128 183/175/128
f 186/154/129 184/152/129 183/175/129 185/174/129
f 188/156/130 186/154/130 185/174/130 187/173/130
f 190/158/131 188/156/131 187/173/131 189/172/131
f 192/160/132 190/158/132 189/172/132 191/171/132
f 194/162/133 192/160/133 191/171/133 193/170/133
f 196/198/134 194/162/134 193/170/134 195/169/134
f 198/201/135 196/198/135 195/169/135 197/168/135
f 200/204/136 198/201/136 197/168/136 199/167/136
f 202/143/137 200/204/137 199/167/137 201/166/137
f 204/103/138 202/143/138 201/166/138 203/165/138
f 137/104/139 204/103/139 203/165/139 138/164/139
f 137/104/140 140/148/140 103/107/140 104/105/140
