# Blender v2.83.4 OBJ File: 'room.blend'
# www.blender.org
mtllib ROOM_PILLAR.mtl
o Cube.001_Cube.006
v -3.108445 0.006406 7.185610
v -3.108445 6.175516 7.185610
v -3.108445 0.006406 6.545952
v -3.108445 6.175516 6.545952
v -2.468787 0.006406 7.185610
v -2.468787 6.175516 7.185610
v -2.468787 0.006406 6.545952
v -2.468787 6.175516 6.545952
v 2.720050 0.006406 7.185610
v 2.720050 6.175516 7.185610
v 2.720050 0.006406 6.545952
v 2.720050 6.175516 6.545952
v 3.359708 0.006406 7.185610
v 3.359708 6.175516 7.185610
v 3.359708 0.006406 6.545952
v 3.359708 6.175516 6.545952
v -3.108445 0.006406 -6.515869
v -3.108445 6.175516 -6.515869
v -3.108445 0.006406 -7.155527
v -3.108445 6.175516 -7.155527
v -2.468787 0.006406 -6.515869
v -2.468787 6.175516 -6.515869
v -2.468787 0.006406 -7.155527
v -2.468787 6.175516 -7.155527
v 2.720050 0.006406 -6.515869
v 2.720050 6.175516 -6.515869
v 2.720050 0.006406 -7.155527
v 2.720050 6.175516 -7.155527
v 3.359708 0.006406 -6.515869
v 3.359708 6.175516 -6.515869
v 3.359708 0.006406 -7.155527
v 3.359708 6.175516 -7.155527
v -10.374824 0.006406 0.328428
v -10.374824 6.175516 0.328428
v -10.374824 0.006406 -0.311230
v -10.374824 6.175516 -0.311230
v -9.735166 0.006406 0.328428
v -9.735166 6.175516 0.328428
v -9.735166 0.006406 -0.311230
v -9.735166 6.175516 -0.311230
v 9.759192 0.006406 0.328428
v 9.759192 6.175516 0.328428
v 9.759192 0.006406 -0.311230
v 9.759192 6.175516 -0.311230
v 10.398850 0.006406 0.328428
v 10.398850 6.175516 0.328428
v 10.398850 0.006406 -0.311230
v 10.398850 6.175516 -0.311230
v -7.705330 0.006406 5.602902
v -7.705330 6.175516 5.602902
v -8.191128 0.006406 5.186772
v -8.191128 6.175516 5.186772
v -7.289202 0.006406 5.117105
v -7.289202 6.175516 5.117105
v -7.774999 0.006406 4.700975
v -7.774999 6.175516 4.700975
v 7.868550 0.006406 -4.582094
v 7.868550 6.175516 -4.582094
v 7.382753 0.006406 -4.998223
v 7.382753 6.175516 -4.998223
v 8.284679 0.006406 -5.067891
v 8.284679 6.175516 -5.067891
v 7.798882 0.006406 -5.484019
v 7.798882 6.175516 -5.484019
v -7.910169 0.006406 -4.661967
v -7.910169 6.175516 -4.661967
v -8.380699 0.006406 -5.095284
v -8.380699 6.175516 -5.095284
v -7.476851 0.006406 -5.132497
v -7.476851 6.175516 -5.132497
v -7.947382 0.006406 -5.565813
v -7.947382 6.175516 -5.565813
v 7.838487 0.006406 5.495923
v 7.838487 6.175516 5.495923
v 7.408898 0.006406 5.021986
v 7.408898 6.175516 5.021986
v 8.312424 0.006406 5.066336
v 8.312424 6.175516 5.066336
v 7.882836 0.006406 4.592400
v 7.882836 6.175516 4.592400
vt 0.375000 0.000000
vt 0.375000 0.250000
vt 0.625000 0.250000
vt 0.625000 0.000000
vt 0.375000 0.500000
vt 0.625000 0.500000
vt 0.375000 0.750000
vt 0.625000 0.750000
vt 0.375000 1.000000
vt 0.625000 1.000000
vt 0.125000 0.500000
vt 0.125000 0.750000
vt 0.875000 0.750000
vt 0.875000 0.500000
vt 0.375000 0.000000
vt 0.625000 0.000000
vt 0.625000 0.250000
vt 0.375000 0.250000
vt 0.625000 0.500000
vt 0.375000 0.500000
vt 0.625000 0.750000
vt 0.375000 0.750000
vt 0.625000 1.000000
vt 0.375000 1.000000
vt 0.125000 0.500000
vt 0.125000 0.750000
vt 0.875000 0.500000
vt 0.875000 0.750000
vt 0.375000 0.000000
vt 0.625000 0.000000
vt 0.625000 0.250000
vt 0.375000 0.250000
vt 0.625000 0.500000
vt 0.375000 0.500000
vt 0.625000 0.750000
vt 0.375000 0.750000
vt 0.625000 1.000000
vt 0.375000 1.000000
vt 0.125000 0.500000
vt 0.125000 0.750000
vt 0.875000 0.500000
vt 0.875000 0.750000
vt 0.375000 0.000000
vt 0.625000 0.000000
vt 0.625000 0.250000
vt 0.375000 0.250000
vt 0.625000 0.500000
vt 0.375000 0.500000
vt 0.625000 0.750000
vt 0.375000 0.750000
vt 0.625000 1.000000
vt 0.375000 1.000000
vt 0.125000 0.500000
vt 0.125000 0.750000
vt 0.875000 0.500000
vt 0.875000 0.750000
vt 0.375000 0.000000
vt 0.625000 0.000000
vt 0.625000 0.250000
vt 0.375000 0.250000
vt 0.625000 0.500000
vt 0.375000 0.500000
vt 0.625000 0.750000
vt 0.375000 0.750000
vt 0.625000 1.000000
vt 0.375000 1.000000
vt 0.125000 0.500000
vt 0.125000 0.750000
vt 0.875000 0.500000
vt 0.875000 0.750000
vt 0.375000 0.000000
vt 0.625000 0.000000
vt 0.625000 0.250000
vt 0.375000 0.250000
vt 0.625000 0.500000
vt 0.375000 0.500000
vt 0.625000 0.750000
vt 0.375000 0.750000
vt 0.625000 1.000000
vt 0.375000 1.000000
vt 0.125000 0.500000
vt 0.125000 0.750000
vt 0.875000 0.500000
vt 0.875000 0.750000
vt 0.375000 0.000000
vt 0.375000 0.250000
vt 0.625000 0.250000
vt 0.625000 0.000000
vt 0.375000 0.500000
vt 0.625000 0.500000
vt 0.375000 0.750000
vt 0.625000 0.750000
vt 0.375000 1.000000
vt 0.625000 1.000000
vt 0.125000 0.500000
vt 0.125000 0.750000
vt 0.875000 0.750000
vt 0.875000 0.500000
vt 0.375000 0.000000
vt 0.375000 0.250000
vt 0.625000 0.250000
vt 0.625000 0.000000
vt 0.375000 0.500000
vt 0.625000 0.500000
vt 0.375000 0.750000
vt 0.625000 0.750000
vt 0.375000 1.000000
vt 0.625000 1.000000
vt 0.125000 0.500000
vt 0.125000 0.750000
vt 0.875000 0.750000
vt 0.875000 0.500000
vt 0.375000 0.000000
vt 0.375000 0.250000
vt 0.625000 0.250000
vt 0.625000 0.000000
vt 0.375000 0.500000
vt 0.625000 0.500000
vt 0.375000 0.750000
vt 0.625000 0.750000
vt 0.375000 1.000000
vt 0.625000 1.000000
vt 0.125000 0.500000
vt 0.125000 0.750000
vt 0.875000 0.750000
vt 0.875000 0.500000
vt 0.375000 0.000000
vt 0.625000 0.000000
vt 0.625000 0.250000
vt 0.375000 0.250000
vt 0.625000 0.500000
vt 0.375000 0.500000
vt 0.625000 0.750000
vt 0.375000 0.750000
vt 0.625000 1.000000
vt 0.375000 1.000000
vt 0.125000 0.500000
vt 0.125000 0.750000
vt 0.875000 0.500000
vt 0.875000 0.750000
vn 1.0000 0.0000 0.0000
vn 0.0000 0.0000 1.0000
vn -1.0000 0.0000 0.0000
vn 0.0000 0.0000 -1.0000
vn 0.0000 1.0000 0.0000
vn 0.0000 -1.0000 0.0000
vn 0.6505 0.0000 -0.7595
vn 0.7595 0.0000 0.6505
vn -0.6505 0.0000 0.7595
vn -0.7595 0.0000 -0.6505
vn 0.6774 0.0000 -0.7356
vn 0.7356 0.0000 0.6774
vn -0.6774 0.0000 0.7356
vn -0.7356 0.0000 -0.6774
vn -0.7409 0.0000 0.6716
vn -0.6716 0.0000 -0.7409
vn 0.7409 0.0000 -0.6716
vn 0.6716 0.0000 0.7409
usemtl None
s off
f 1/1/1 3/2/1 4/3/1 2/4/1
f 3/2/2 7/5/2 8/6/2 4/3/2
f 7/5/3 5/7/3 6/8/3 8/6/3
f 5/7/4 1/9/4 2/10/4 6/8/4
f 3/11/5 1/12/5 5/7/5 7/5/5
f 8/6/6 6/8/6 2/13/6 4/14/6
f 9/15/3 10/16/3 12/17/3 11/18/3
f 11/18/4 12/17/4 16/19/4 15/20/4
f 15/20/1 16/19/1 14/21/1 13/22/1
f 13/22/2 14/21/2 10/23/2 9/24/2
f 11/25/6 15/20/6 13/22/6 9/26/6
f 16/19/5 12/27/5 10/28/5 14/21/5
f 17/29/3 18/30/3 20/31/3 19/32/3
f 19/32/4 20/31/4 24/33/4 23/34/4
f 23/34/1 24/33/1 22/35/1 21/36/1
f 21/36/2 22/35/2 18/37/2 17/38/2
f 19/39/6 23/34/6 21/36/6 17/40/6
f 24/33/5 20/41/5 18/42/5 22/35/5
f 25/43/3 26/44/3 28/45/3 27/46/3
f 27/46/4 28/45/4 32/47/4 31/48/4
f 31/48/1 32/47/1 30/49/1 29/50/1
f 29/50/2 30/49/2 26/51/2 25/52/2
f 27/53/6 31/48/6 29/50/6 25/54/6
f 32/47/5 28/55/5 26/56/5 30/49/5
f 33/57/3 34/58/3 36/59/3 35/60/3
f 35/60/4 36/59/4 40/61/4 39/62/4
f 39/62/1 40/61/1 38/63/1 37/64/1
f 37/64/2 38/63/2 34/65/2 33/66/2
f 35/67/6 39/62/6 37/64/6 33/68/6
f 40/61/5 36/69/5 34/70/5 38/63/5
f 41/71/3 42/72/3 44/73/3 43/74/3
f 43/74/4 44/73/4 48/75/4 47/76/4
f 47/76/1 48/75/1 46/77/1 45/78/1
f 45/78/2 46/77/2 42/79/2 41/80/2
f 43/81/6 47/76/6 45/78/6 41/82/6
f 48/75/5 44/83/5 42/84/5 46/77/5
f 49/85/7 51/86/7 52/87/7 50/88/7
f 51/86/8 55/89/8 56/90/8 52/87/8
f 55/89/9 53/91/9 54/92/9 56/90/9
f 53/91/10 49/93/10 50/94/10 54/92/10
f 51/95/5 49/96/5 53/91/5 55/89/5
f 56/90/6 54/92/6 50/97/6 52/98/6
f 57/99/7 59/100/7 60/101/7 58/102/7
f 59/100/8 63/103/8 64/104/8 60/101/8
f 63/103/9 61/105/9 62/106/9 64/104/9
f 61/105/10 57/107/10 58/108/10 62/106/10
f 59/109/5 57/110/5 61/105/5 63/103/5
f 64/104/6 62/106/6 58/111/6 60/112/6
f 65/113/11 67/114/11 68/115/11 66/116/11
f 67/114/12 71/117/12 72/118/12 68/115/12
f 71/117/13 69/119/13 70/120/13 72/118/13
f 69/119/14 65/121/14 66/122/14 70/120/14
f 67/123/5 65/124/5 69/119/5 71/117/5
f 72/118/6 70/120/6 66/125/6 68/126/6
f 73/127/15 74/128/15 76/129/15 75/130/15
f 75/130/16 76/129/16 80/131/16 79/132/16
f 79/132/17 80/131/17 78/133/17 77/134/17
f 77/134/18 78/133/18 74/135/18 73/136/18
f 75/137/6 79/132/6 77/134/6 73/138/6
f 80/131/5 76/139/5 74/140/5 78/133/5
