# Blender v2.83.4 OBJ File: 'room.blend'
# www.blender.org
mtllib ROOM_WALL.mtl
o Wall.002_Circle.002
v -10.024990 0.455447 -0.000001
v -9.907418 0.455447 1.268802
v -9.558705 0.455447 2.494398
v -8.990728 0.455447 3.635050
v -8.222827 0.455447 4.651915
v -7.281155 0.455447 5.510364
v -6.197774 0.455447 6.181164
v -5.009582 0.455447 6.641473
v -3.757039 0.455447 6.875613
v 3.757043 0.455447 6.875614
v 5.009586 0.455447 6.641474
v 6.197778 0.455447 6.181165
v 7.281158 0.455447 5.510365
v 8.222834 0.455447 4.651915
v 8.990735 0.455447 3.635050
v 9.558712 0.455447 2.494397
v 9.907424 0.455447 1.268800
v 10.024994 0.455447 -0.000004
v 9.907422 0.455447 -1.268808
v 9.558708 0.455447 -2.494404
v 8.990730 0.455447 -3.635056
v 8.222829 0.455447 -4.651921
v 7.281155 0.455447 -5.510369
v 6.197774 0.455447 -6.181169
v 5.009580 0.455447 -6.641476
v 3.757036 0.455447 -6.875616
v -3.757046 0.455447 -6.875615
v -5.009590 0.455447 -6.641472
v -6.197783 0.455447 -6.181162
v -7.281161 0.455447 -5.510360
v -8.222835 0.455447 -4.651908
v -8.990735 0.455447 -3.635042
v -9.558710 0.455447 -2.494388
v -9.907420 0.455447 -1.268791
v -9.907418 5.220597 1.268802
v -10.024990 5.220597 -0.000001
v -9.558705 5.220597 2.494398
v -8.990728 5.220597 3.635050
v -8.222827 5.220597 4.651915
v -7.281155 5.220597 5.510364
v -6.197774 5.220597 6.181164
v -5.009582 5.220597 6.641473
v -3.757039 5.220597 6.875613
v 3.757043 5.220597 6.875614
v 5.009586 5.220597 6.641474
v 6.197778 5.220597 6.181165
v 7.281158 5.220597 5.510365
v 8.222834 5.220597 4.651915
v 8.990735 5.220597 3.635050
v 9.558712 5.220597 2.494397
v 9.907424 5.220597 1.268800
v 10.024994 5.220597 -0.000004
v 9.907422 5.220597 -1.268808
v 9.558708 5.220597 -2.494404
v 8.990730 5.220597 -3.635056
v 8.222829 5.220597 -4.651921
v 7.281155 5.220597 -5.510369
v 6.197774 5.220597 -6.181169
v 5.009580 5.220597 -6.641476
v 3.757036 5.220597 -6.875616
v -3.757046 5.220597 -6.875615
v -5.009590 5.220597 -6.641472
v -6.197783 5.220597 -6.181162
v -7.281161 5.220597 -5.510360
v -8.222835 5.220597 -4.651908
v -8.990735 5.220597 -3.635042
v -9.558710 5.220597 -2.494388
v -9.907420 5.220597 -1.268791
v -9.876248 5.220595 -0.000001
v -9.876248 0.455447 -0.000001
v -9.760424 0.455447 -1.249966
v -9.760424 5.220597 -1.249966
v -9.760421 5.220595 1.249977
v -9.760421 0.455447 1.249977
v -9.416887 0.455447 -2.457379
v -9.416887 5.220597 -2.457379
v -8.857339 5.220597 -3.581109
v -8.857339 0.455448 -3.581109
v -9.416883 5.220595 2.457388
v -9.416883 0.455447 2.457388
v -8.857331 0.455448 3.581116
v -8.857331 5.220597 3.581116
v -8.100832 5.220597 -4.582888
v -8.100833 0.455447 -4.582888
v -8.100824 0.455448 4.582894
v -8.100824 5.220599 4.582894
v -6.105825 5.220597 -6.089452
v -6.105825 0.455448 -6.089452
v -7.173131 5.220597 -5.428602
v -7.173131 0.455448 -5.428602
v -7.173124 0.455448 5.428606
v -7.173124 5.220599 5.428606
v 3.701293 0.455447 -6.773602
v 3.701293 5.220595 -6.773602
v -3.701303 0.455448 -6.773601
v -3.701303 5.220597 -6.773601
v -4.935262 5.220594 -6.542932
v -4.935262 0.455448 -6.542932
v -6.105817 0.455447 6.089454
v -6.105817 5.220597 6.089454
v -4.935255 0.455448 6.542933
v -4.935255 5.220597 6.542933
v -3.701295 0.455447 6.773599
v -3.701295 5.220597 6.773599
v 3.701299 5.220597 6.773600
v 3.701299 0.455448 6.773600
v 4.935252 0.455449 -6.542935
v 4.935252 5.220597 -6.542935
v 6.105817 5.220597 -6.089458
v 6.105817 0.455447 -6.089458
v 4.935258 5.220597 6.542934
v 4.935258 0.455446 6.542934
v 6.105821 5.220597 6.089455
v 6.105821 0.455448 6.089455
v 7.173124 5.220597 -5.428611
v 7.173124 0.455448 -5.428611
v 7.173127 0.455448 5.428607
v 7.173127 5.220595 5.428607
v 8.100826 5.220597 -4.582900
v 8.100826 0.455448 -4.582900
v 8.857335 5.220597 -3.581123
v 8.857334 0.455448 -3.581123
v 8.100831 0.455448 4.582894
v 8.100832 5.220597 4.582894
v 9.416885 5.220597 -2.457394
v 9.416885 0.455447 -2.457394
v 8.857338 0.455448 3.581116
v 8.857339 5.220597 3.581116
v 9.760426 5.220597 -1.249982
v 9.760426 0.455447 -1.249982
v 9.416889 0.455447 2.457387
v 9.416889 5.220597 2.457387
v 9.876252 5.220597 -0.000004
v 9.876252 0.455447 -0.000004
v 9.760427 5.220597 1.249975
v 9.760427 0.455447 1.249975
vt 0.500000 1.000000
vt 0.591874 0.991487
vt 0.680620 0.966236
vt 0.763215 0.925109
vt 0.836847 0.869505
vt 0.899008 0.801318
vt 0.947581 0.722870
vt 0.980913 0.636832
vt 0.997867 0.546135
vt 0.997867 0.453866
vt 0.990480 0.451118
vt 0.990480 0.548883
vt 0.973777 0.633710
vt 0.940941 0.718427
vt 0.893088 0.795712
vt 0.831849 0.862898
vt 0.759310 0.917689
vt 0.677940 0.958217
vt 0.590510 0.983099
vt 0.500000 0.991489
vt 0.409488 0.983099
vt 0.322059 0.958216
vt 0.240689 0.917689
vt 0.168150 0.862898
vt 0.106912 0.795711
vt 0.059059 0.718426
vt 0.026222 0.633709
vt 0.009520 0.548882
vt 0.002133 0.546134
vt 0.019087 0.636832
vt 0.052418 0.722869
vt 0.100991 0.801317
vt 0.163152 0.869504
vt 0.236784 0.925109
vt 0.319379 0.966236
vt 0.408125 0.991487
vt 0.500000 1.000000
vt 0.408125 0.991487
vt 0.319379 0.966236
vt 0.236784 0.925109
vt 0.163152 0.869504
vt 0.100991 0.801317
vt 0.052418 0.722869
vt 0.019087 0.636832
vt 0.002133 0.546134
vt 0.002133 0.453866
vt 0.009520 0.451118
vt 0.009520 0.548882
vt 0.026222 0.633709
vt 0.059059 0.718426
vt 0.106912 0.795712
vt 0.168150 0.862898
vt 0.240689 0.917689
vt 0.322059 0.958216
vt 0.409488 0.983099
vt 0.500000 0.991489
vt 0.590510 0.983099
vt 0.677940 0.958217
vt 0.759310 0.917689
vt 0.831849 0.862898
vt 0.893088 0.795712
vt 0.940941 0.718427
vt 0.973777 0.633710
vt 0.990480 0.548883
vt 0.990480 0.451118
vt 0.997867 0.453866
vt 0.997867 0.546135
vt 0.980913 0.636832
vt 0.947581 0.722870
vt 0.899008 0.801318
vt 0.836847 0.869505
vt 0.763215 0.925109
vt 0.680620 0.966236
vt 0.591874 0.991487
vt 0.836848 0.130496
vt 0.899009 0.198683
vt 0.899009 0.198683
vt 0.836848 0.130496
vt 0.002133 0.453866
vt 0.947582 0.277131
vt 0.947582 0.277131
vt 0.019087 0.363169
vt 0.019087 0.363169
vt 0.980913 0.363169
vt 0.980913 0.363169
vt 0.052418 0.277131
vt 0.052418 0.277131
vt 0.100991 0.198683
vt 0.100991 0.198683
vt 0.163152 0.130495
vt 0.163152 0.130495
vt 0.236784 0.074891
vt 0.236784 0.074891
vt 0.319379 0.033764
vt 0.319379 0.033764
vt 0.408125 0.008513
vt 0.408125 0.008513
vt 0.500000 0.000000
vt 0.500000 0.000000
vt 0.591875 0.008514
vt 0.591875 0.008514
vt 0.680621 0.033764
vt 0.680621 0.033764
vt 0.763216 0.074892
vt 0.763216 0.074892
vt 0.980913 0.363169
vt 0.980913 0.363169
vt 0.997867 0.453866
vt 0.997867 0.453866
vt 0.763216 0.074892
vt 0.763216 0.074892
vt 0.836848 0.130496
vt 0.836848 0.130496
vt 0.100991 0.198683
vt 0.100991 0.198683
vt 0.163152 0.130495
vt 0.163152 0.130495
vt 0.591874 0.991487
vt 0.591874 0.991487
vt 0.500000 1.000000
vt 0.500000 1.000000
vt 0.997867 0.546135
vt 0.997867 0.546135
vt 0.836847 0.869505
vt 0.836847 0.869505
vt 0.763215 0.925109
vt 0.763215 0.925109
vt 0.947582 0.277131
vt 0.947582 0.277131
vt 0.019087 0.363168
vt 0.019087 0.363168
vt 0.052418 0.277131
vt 0.052418 0.277131
vt 0.899009 0.198683
vt 0.899009 0.198683
vt 0.052418 0.722869
vt 0.052418 0.722869
vt 0.019087 0.636832
vt 0.019087 0.636832
vt 0.236784 0.074891
vt 0.236784 0.074891
vt 0.319379 0.033764
vt 0.319379 0.033764
vt 0.163152 0.869504
vt 0.163152 0.869504
vt 0.100991 0.801317
vt 0.100991 0.801317
vt 0.980913 0.636832
vt 0.980913 0.636832
vt 0.947581 0.722870
vt 0.947581 0.722870
vt 0.680621 0.033764
vt 0.680621 0.033764
vt 0.002133 0.546134
vt 0.002133 0.546134
vt 0.002133 0.453866
vt 0.002133 0.453866
vt 0.899008 0.801318
vt 0.899008 0.801318
vt 0.591875 0.008514
vt 0.591875 0.008514
vt 0.500000 0.000000
vt 0.500000 0.000000
vt 0.680620 0.966236
vt 0.680620 0.966236
vt 0.408125 0.008513
vt 0.408125 0.008513
vt 0.236784 0.925109
vt 0.236784 0.925109
vt 0.408125 0.991487
vt 0.408125 0.991486
vt 0.319379 0.966236
vt 0.319379 0.966236
vt 0.973778 0.366291
vt 0.940941 0.281574
vt 0.893089 0.204289
vt 0.831850 0.137103
vt 0.759311 0.082311
vt 0.677941 0.041784
vt 0.590512 0.016901
vt 0.500000 0.008512
vt 0.409489 0.016901
vt 0.322059 0.041784
vt 0.240689 0.082311
vt 0.168150 0.137102
vt 0.106912 0.204288
vt 0.059059 0.281574
vt 0.026222 0.366291
vt 0.009520 0.451118
vt 0.026222 0.366291
vt 0.059059 0.281574
vt 0.106912 0.204288
vt 0.168150 0.137102
vt 0.240689 0.082311
vt 0.322059 0.041784
vt 0.409489 0.016901
vt 0.500000 0.008512
vt 0.590512 0.016901
vt 0.677941 0.041784
vt 0.759311 0.082312
vt 0.831850 0.137103
vt 0.893089 0.204289
vt 0.940941 0.281574
vt 0.973777 0.366291
vn -0.7267 -0.6869 0.0000
vn -0.7143 -0.6869 -0.1335
vn -0.6776 -0.6869 -0.2625
vn -0.6179 -0.6869 -0.3825
vn -0.5371 -0.6869 -0.4896
vn -0.4379 -0.6869 -0.5799
vn -0.3239 -0.6869 -0.6505
vn -0.1989 -0.6869 -0.6990
vn -0.0670 -0.6869 -0.7236
vn 0.0670 -0.6869 -0.7236
vn -0.0632 -0.7284 0.6821
vn 0.0670 -0.6869 0.7236
vn 0.1989 -0.6869 0.6990
vn 0.3239 -0.6869 0.6505
vn 0.4379 -0.6869 0.5799
vn 0.5371 -0.6869 0.4896
vn 0.6179 -0.6869 0.3825
vn 0.6776 -0.6869 0.2625
vn 0.7143 -0.6869 0.1335
vn 0.7267 -0.6869 0.0000
vn 0.7143 -0.6869 -0.1335
vn 0.6776 -0.6869 -0.2625
vn 0.6179 -0.6869 -0.3825
vn 0.5371 -0.6869 -0.4896
vn 0.4379 -0.6869 -0.5799
vn 0.3239 -0.6869 -0.6505
vn 0.1989 -0.6869 -0.6990
vn 0.0632 -0.7284 -0.6821
vn -0.0670 -0.6869 0.7236
vn -0.1989 -0.6869 0.6990
vn -0.3239 -0.6869 0.6505
vn -0.4379 -0.6869 0.5799
vn -0.5370 -0.6869 0.4896
vn -0.6179 -0.6869 0.3825
vn -0.6776 -0.6869 0.2625
vn -0.7143 -0.6869 0.1335
vn -0.7267 0.6869 0.0000
vn -0.7143 0.6869 0.1335
vn -0.6776 0.6869 0.2625
vn -0.6179 0.6869 0.3825
vn -0.5370 0.6869 0.4896
vn -0.4379 0.6869 0.5799
vn -0.3239 0.6869 0.6505
vn -0.1989 0.6869 0.6990
vn -0.0670 0.6869 0.7236
vn 0.0670 0.6869 0.7236
vn -0.0632 0.7284 -0.6821
vn 0.0670 0.6869 -0.7236
vn 0.1989 0.6869 -0.6990
vn 0.3239 0.6869 -0.6505
vn 0.4379 0.6869 -0.5799
vn 0.5371 0.6869 -0.4896
vn 0.6179 0.6869 -0.3825
vn 0.6776 0.6869 -0.2625
vn 0.7143 0.6869 -0.1335
vn 0.7267 0.6869 0.0000
vn 0.7143 0.6869 0.1335
vn 0.6776 0.6869 0.2625
vn 0.6179 0.6869 0.3825
vn 0.5371 0.6869 0.4896
vn 0.4379 0.6869 0.5799
vn 0.3239 0.6869 0.6505
vn 0.1989 0.6869 0.6990
vn -0.0632 0.7284 0.6821
vn -0.0670 0.6869 -0.7236
vn -0.1989 0.6869 -0.6990
vn -0.3239 0.6869 -0.6505
vn -0.4379 0.6869 -0.5799
vn -0.5371 0.6869 -0.4896
vn -0.6179 0.6869 -0.3825
vn -0.6776 0.6869 -0.2625
vn -0.7143 0.6869 -0.1335
vn 0.5370 -0.6869 -0.4896
vn 0.5370 0.6869 -0.4896
vn 0.5370 -0.6869 0.4896
vn -0.5370 0.6869 -0.4896
vn -0.5370 -0.6869 -0.4896
usemtl Material.019
s 1
f 1/1/1 34/2/2 33/3/3 32/4/4 31/5/5 30/6/6 29/7/7 28/8/8 27/9/9 26/10/10 93/11/11 95/12/12 98/13/13 88/14/14 90/15/15 84/16/16 78/17/17 75/18/18 71/19/19 70/20/20 74/21/21 80/22/22 81/23/23 85/24/24 91/25/25 99/26/26 101/27/27 103/28/28 9/29/29 8/30/30 7/31/31 6/32/32 5/33/33 4/34/34 3/35/35 2/36/36
f 36/37/37 35/38/38 37/39/39 38/40/40 39/41/41 40/42/42 41/43/43 42/44/44 43/45/45 44/46/46 105/47/47 104/48/48 102/49/49 100/50/50 92/51/51 86/52/52 82/53/53 79/54/54 73/55/55 69/56/56 72/57/57 76/58/58 77/59/59 83/60/60 89/61/61 87/62/62 97/63/63 96/64/46 94/65/64 60/66/48 61/67/65 62/68/66 63/69/67 64/70/68 65/71/69 66/72/70 67/73/71 68/74/72
f 22/75/73 23/76/25 57/77/51 56/78/74
f 9/29/29 10/79/12 44/46/46 43/45/45
f 23/76/25 24/80/26 58/81/50 57/77/51
f 10/79/12 11/82/13 45/83/63 44/46/46
f 24/80/26 25/84/27 59/85/49 58/81/50
f 11/82/13 12/86/14 46/87/62 45/83/63
f 25/84/27 26/10/10 60/66/48 59/85/49
f 12/86/14 13/88/15 47/89/61 46/87/62
f 26/10/10 27/9/9 61/67/65 60/66/48
f 13/88/15 14/90/75 48/91/60 47/89/61
f 27/9/9 28/8/8 62/68/66 61/67/65
f 14/90/75 15/92/17 49/93/59 48/91/60
f 1/1/1 2/36/36 35/38/38 36/37/37
f 28/8/8 29/7/7 63/69/67 62/68/66
f 15/92/17 16/94/18 50/95/58 49/93/59
f 2/36/36 3/35/35 37/39/39 35/38/38
f 29/7/7 30/6/6 64/70/68 63/69/67
f 16/94/18 17/96/19 51/97/57 50/95/58
f 3/35/35 4/34/34 38/40/40 37/39/39
f 30/6/6 31/5/5 65/71/69 64/70/68
f 17/96/19 18/98/20 52/99/56 51/97/57
f 4/34/34 5/33/33 39/41/41 38/40/40
f 31/5/5 32/4/4 66/72/70 65/71/69
f 18/98/20 19/100/21 53/101/55 52/99/56
f 5/33/33 6/32/32 40/42/42 39/41/41
f 32/4/4 33/3/3 67/73/71 66/72/70
f 19/100/21 20/102/22 54/103/54 53/101/55
f 6/32/32 7/31/31 41/43/43 40/42/42
f 33/3/3 34/2/2 68/74/72 67/73/71
f 20/102/22 21/104/23 55/105/53 54/103/54
f 7/31/31 8/30/30 42/44/44 41/43/43
f 34/2/2 1/1/1 36/37/37 68/74/72
f 21/104/23 22/75/73 56/78/74 55/105/53
f 8/30/30 9/29/29 43/45/45 42/44/44
f 107/106/30 108/107/44 94/108/64 93/109/11
f 122/110/34 121/111/40 119/112/41 120/113/33
f 117/114/6 118/115/68 124/116/76 123/117/77
f 71/118/19 72/119/57 69/120/56 70/121/20
f 93/109/11 94/108/64 96/122/46 95/123/12
f 84/124/16 83/125/60 77/126/59 78/127/17
f 110/128/31 109/129/43 108/107/44 107/106/30
f 112/130/8 111/131/66 113/132/67 114/133/7
f 116/134/32 115/135/42 109/129/43 110/128/31
f 99/136/26 100/137/50 102/138/49 101/139/27
f 127/140/4 128/141/70 132/142/71 131/143/3
f 85/144/24 86/145/52 92/146/51 91/147/25
f 98/148/13 97/149/63 87/150/62 88/151/14
f 126/152/35 125/153/39 121/111/40 122/110/34
f 103/154/28 104/155/48 105/156/47 106/157/9
f 88/151/14 87/150/62 89/158/61 90/159/15
f 120/113/33 119/112/41 115/135/42 116/134/32
f 95/123/12 96/122/46 97/149/63 98/148/13
f 130/160/36 129/161/38 125/153/39 126/152/35
f 134/162/1 133/163/37 129/161/38 130/160/36
f 75/164/18 76/165/58 72/119/57 71/118/19
f 101/139/27 102/138/49 104/155/48 103/154/28
f 131/143/3 132/142/71 135/166/72 136/167/2
f 123/117/77 124/116/76 128/141/70 127/140/4
f 90/159/15 89/158/61 83/125/60 84/124/16
f 106/157/9 105/156/47 111/131/66 112/130/8
f 81/168/23 82/169/53 86/145/52 85/144/24
f 114/133/7 113/132/67 118/115/68 117/114/6
f 74/170/21 73/171/55 79/172/54 80/173/22
f 60/66/48 94/65/64 108/174/44 109/175/43 115/176/42 119/177/41 121/178/40 125/179/39 129/180/38 133/181/37 135/182/72 132/183/71 128/184/70 124/185/76 118/186/68 113/187/67 111/188/66 105/47/47 44/46/46 45/83/63 46/87/62 47/89/61 48/91/60 49/93/59 50/95/58 51/97/57 52/99/56 53/101/55 54/103/54 55/105/53 56/78/74 57/77/51 58/81/50 59/85/49
f 91/147/25 92/146/51 100/137/50 99/136/26
f 136/167/2 135/166/72 133/163/37 134/162/1
f 70/121/20 69/120/56 73/171/55 74/170/21
f 78/127/17 77/126/59 76/165/58 75/164/18
f 80/173/22 79/172/54 82/169/53 81/168/23
f 9/29/29 103/28/28 106/189/9 112/190/8 114/191/7 117/192/6 123/193/77 127/194/4 131/195/3 136/196/2 134/197/1 130/198/36 126/199/35 122/200/34 120/201/33 116/202/32 110/203/31 107/204/30 93/11/11 26/10/10 25/84/27 24/80/26 23/76/25 22/75/73 21/104/23 20/102/22 19/100/21 18/98/20 17/96/19 16/94/18 15/92/17 14/90/75 13/88/15 12/86/14 11/82/13 10/79/12
