# Blender v2.83.4 OBJ File: 'room.blend'
# www.blender.org
mtllib ROOM_ROOFTOP LAMP_ONLY.mtl
o Rooftop.002_Circle.007
v -7.592883 4.566377 0.002753
v -7.501489 4.566377 0.989052
v -7.230419 4.566377 1.941763
v -6.788904 4.566377 2.828445
v -6.191980 4.566377 3.618900
v -5.459975 4.566377 4.286211
v -4.617813 4.566377 4.807656
v -3.694177 4.566377 5.165475
v -2.720518 4.566377 5.347483
v 3.383096 4.566377 5.347483
v 4.356755 4.566377 5.165476
v 5.280391 4.566377 4.807657
v 6.122552 4.566377 4.286212
v 6.854559 4.566377 3.618900
v 7.451484 4.566377 2.828444
v 7.892999 4.566377 1.941763
v 8.164069 4.566377 0.989051
v 8.255462 4.566377 0.002751
v 8.164067 4.566377 -0.983548
v 7.892995 4.566377 -1.936260
v 7.451481 4.566377 -2.822941
v 6.854556 4.566377 -3.613397
v 6.122550 4.566377 -4.280707
v 5.280388 4.566377 -4.802151
v 4.356750 4.566377 -5.159968
v 3.383091 4.566377 -5.341977
v -2.720524 4.566377 -5.341975
v -3.694183 4.566377 -5.159966
v -4.617819 4.566377 -4.802146
v -5.459980 4.566377 -4.280701
v -6.191985 4.566377 -3.613387
v -6.788909 4.566377 -2.822930
v -7.230422 4.566377 -1.936248
v -7.501491 4.566377 -0.983535
v -7.501489 4.755247 0.989052
v -7.592883 4.755247 0.002753
v -7.230419 4.755247 1.941763
v -6.788904 4.755247 2.828445
v -6.191980 4.755247 3.618900
v -5.459975 4.755247 4.286211
v -4.617813 4.755247 4.807656
v -3.694177 4.755247 5.165475
v -2.720518 4.755247 5.347483
v 3.383096 4.755247 5.347483
v 4.356755 4.755247 5.165476
v 5.280391 4.755247 4.807657
v 6.122552 4.755247 4.286212
v 6.854559 4.755247 3.618900
v 7.451484 4.755247 2.828444
v 7.892999 4.755247 1.941763
v 8.164069 4.755247 0.989051
v 8.255462 4.755247 0.002751
v 8.164067 4.755247 -0.983548
v 7.892995 4.755247 -1.936260
v 7.451481 4.755247 -2.822941
v 6.854556 4.755247 -3.613397
v 6.122550 4.755247 -4.280707
v 5.280388 4.755247 -4.802151
v 4.356750 4.755247 -5.159968
v 3.383091 4.755247 -5.341977
v -2.720524 4.755247 -5.341975
v -3.694183 4.755247 -5.159966
v -4.617819 4.755247 -4.802146
v -5.459980 4.755247 -4.280701
v -6.191985 4.755247 -3.613387
v -6.788909 4.755247 -2.822930
v -7.230422 4.755247 -1.936248
v -7.501491 4.755247 -0.983535
v -7.787108 4.566377 1.042444
v -7.883451 4.566377 0.002753
v -7.501365 4.566377 2.046729
v -7.035949 4.566377 2.981409
v -6.406712 4.566377 3.814654
v -5.635080 4.566377 4.518090
v -4.747330 4.566377 5.067761
v -3.773695 4.566377 5.444950
v -2.747328 4.566377 5.636811
v 3.409906 4.566377 5.636811
v 4.436273 4.566377 5.444951
v 5.409908 4.566377 5.067762
v 6.297658 4.566377 4.518091
v 7.069291 4.566377 3.814654
v 7.698530 4.566377 2.981408
v 8.163945 4.566377 2.046728
v 8.449689 4.566377 1.042442
v 8.546028 4.566377 0.002751
v 8.449687 4.566377 -1.036940
v 8.163941 4.566377 -2.041225
v 7.698526 4.566377 -2.975905
v 7.069287 4.566377 -3.809151
v 6.297655 4.566377 -4.512585
v 5.409904 4.566377 -5.062256
v 4.436267 4.566377 -5.439444
v 3.409901 4.566377 -5.631304
v -2.747334 4.566377 -5.631303
v -3.773701 4.566377 -5.439441
v -4.747337 4.566377 -5.062251
v -5.635086 4.566377 -4.512578
v -6.406717 4.566377 -3.809141
v -7.035955 4.566377 -2.975894
v -7.501369 4.566377 -2.041212
v -7.787110 4.566377 -1.036926
v -7.787108 4.755247 1.042444
v -7.883451 4.755247 0.002753
v -7.501365 4.755247 2.046729
v -7.035949 4.755247 2.981409
v -6.406712 4.755247 3.814654
v -5.635080 4.755247 4.518090
v -4.747330 4.755247 5.067761
v -3.773695 4.755247 5.444950
v -2.747328 4.755247 5.636811
v 3.409906 4.755247 5.636811
v 4.436273 4.755247 5.444951
v 5.409908 4.755247 5.067762
v 6.297658 4.755247 4.518091
v 7.069291 4.755247 3.814654
v 7.698530 4.755247 2.981408
v 8.163945 4.755247 2.046728
v 8.449689 4.755247 1.042442
v 8.546028 4.755247 0.002751
v 8.449687 4.755247 -1.036940
v 8.163941 4.755247 -2.041225
v 7.698526 4.755247 -2.975905
v 7.069287 4.755247 -3.809151
v 6.297655 4.755247 -4.512585
v 5.409904 4.755247 -5.062256
v 4.436267 4.755247 -5.439444
v 3.409901 4.755247 -5.631304
v -2.747334 4.755247 -5.631303
v -3.773701 4.755247 -5.439441
v -4.747337 4.755247 -5.062251
v -5.635086 4.755247 -4.512578
v -6.406717 4.755247 -3.809141
v -7.035955 4.755247 -2.975894
v -7.501369 4.755247 -2.041212
v -7.787110 4.755247 -1.036926
vt 0.587157 0.028400
vt 0.587157 0.028400
vt 0.671346 0.052276
vt 0.671346 0.052276
vt 0.749699 0.091156
vt 0.749699 0.091156
vt 0.836848 0.130496
vt 0.899009 0.198683
vt 0.899009 0.198683
vt 0.836848 0.130496
vt 0.002133 0.546134
vt 0.002133 0.453866
vt 0.002133 0.453866
vt 0.002133 0.546134
vt 0.947582 0.277131
vt 0.947582 0.277131
vt 0.019087 0.363169
vt 0.019087 0.363169
vt 0.980913 0.363169
vt 0.980913 0.363169
vt 0.052418 0.277131
vt 0.052418 0.277131
vt 0.997867 0.453866
vt 0.997867 0.453866
vt 0.100991 0.198683
vt 0.100991 0.198683
vt 0.997867 0.546135
vt 0.997867 0.546135
vt 0.163152 0.130495
vt 0.163152 0.130495
vt 0.980913 0.636832
vt 0.980913 0.636832
vt 0.236784 0.074891
vt 0.236784 0.074891
vt 0.500000 1.000000
vt 0.408125 0.991487
vt 0.408125 0.991487
vt 0.500000 1.000000
vt 0.947581 0.722870
vt 0.947581 0.722870
vt 0.319379 0.033764
vt 0.319379 0.033764
vt 0.319379 0.966236
vt 0.319379 0.966236
vt 0.899008 0.801318
vt 0.899008 0.801318
vt 0.408125 0.008513
vt 0.408125 0.008513
vt 0.236784 0.925109
vt 0.236784 0.925109
vt 0.836847 0.869505
vt 0.836847 0.869505
vt 0.500000 0.000000
vt 0.500000 0.000000
vt 0.163152 0.869504
vt 0.163152 0.869504
vt 0.763215 0.925109
vt 0.763215 0.925109
vt 0.591875 0.008514
vt 0.591875 0.008514
vt 0.100991 0.801317
vt 0.100991 0.801317
vt 0.680620 0.966236
vt 0.680620 0.966236
vt 0.680621 0.033764
vt 0.680621 0.033764
vt 0.052418 0.722869
vt 0.052418 0.722869
vt 0.591874 0.991487
vt 0.591874 0.991487
vt 0.763216 0.074892
vt 0.763216 0.074892
vt 0.019087 0.636832
vt 0.019087 0.636832
vt 0.500000 0.979652
vt 0.412843 0.971601
vt 0.328655 0.947724
vt 0.250301 0.908845
vt 0.180450 0.856303
vt 0.121482 0.791924
vt 0.075403 0.717984
vt 0.043784 0.637350
vt 0.027700 0.560145
vt 0.027700 0.439855
vt 0.043784 0.362650
vt 0.075403 0.282016
vt 0.121482 0.208076
vt 0.180451 0.143697
vt 0.250301 0.091155
vt 0.328655 0.052276
vt 0.412843 0.028399
vt 0.500000 0.020349
vt 0.819550 0.143697
vt 0.878518 0.208077
vt 0.924597 0.282016
vt 0.956216 0.362651
vt 0.972300 0.439856
vt 0.972300 0.560145
vt 0.956216 0.637350
vt 0.924597 0.717984
vt 0.878518 0.791924
vt 0.819549 0.856304
vt 0.749698 0.908845
vt 0.671344 0.947724
vt 0.587156 0.971601
vt 0.412843 0.971600
vt 0.500000 0.979652
vt 0.328655 0.947724
vt 0.250301 0.908845
vt 0.180450 0.856303
vt 0.121482 0.791924
vt 0.075403 0.717984
vt 0.043784 0.637350
vt 0.027700 0.560145
vt 0.027700 0.439855
vt 0.043784 0.362650
vt 0.075403 0.282016
vt 0.121482 0.208076
vt 0.180451 0.143697
vt 0.250301 0.091155
vt 0.328655 0.052276
vt 0.412844 0.028399
vt 0.500000 0.020349
vt 0.819550 0.143697
vt 0.878519 0.208077
vt 0.924597 0.282016
vt 0.956216 0.362651
vt 0.972300 0.439856
vt 0.972300 0.560145
vt 0.956216 0.637350
vt 0.924597 0.717985
vt 0.878518 0.791924
vt 0.819549 0.856304
vt 0.749698 0.908845
vt 0.671344 0.947724
vt 0.587156 0.971601
vn -0.9618 0.0000 0.2737
vn -0.8952 0.0000 0.4457
vn 0.6737 0.0000 -0.7390
vn 0.0000 0.0000 1.0000
vn 0.5264 0.0000 -0.8502
vn 0.1837 0.0000 0.9830
vn 0.3612 0.0000 -0.9325
vn 0.3612 0.0000 0.9325
vn 0.1837 0.0000 -0.9830
vn 0.5264 0.0000 0.8502
vn -0.0000 0.0000 -1.0000
vn 0.6737 0.0000 0.7390
vn -0.1838 0.0000 -0.9830
vn 0.7980 0.0000 0.6026
vn -0.9957 0.0000 0.0923
vn -0.3612 0.0000 -0.9325
vn 0.8952 0.0000 0.4457
vn -0.5264 0.0000 -0.8502
vn 0.9618 0.0000 0.2737
vn -0.6737 0.0000 -0.7390
vn 0.9957 0.0000 0.0923
vn -0.7980 0.0000 0.6026
vn -0.7980 0.0000 -0.6026
vn 0.9957 0.0000 -0.0923
vn -0.6737 0.0000 0.7390
vn -0.8952 0.0000 -0.4457
vn 0.9618 0.0000 -0.2737
vn -0.5264 0.0000 0.8502
vn -0.9618 0.0000 -0.2737
vn 0.8952 0.0000 -0.4457
vn -0.3612 0.0000 0.9325
vn -0.9957 0.0000 -0.0923
vn 0.7980 0.0000 -0.6026
vn -0.1837 0.0000 0.9830
vn 0.0000 -1.0000 0.0000
vn 0.0000 1.0000 -0.0000
vn -0.1837 0.0000 -0.9830
vn 0.1838 0.0000 0.9830
usemtl None
s off
f 19/1/1 53/2/1 54/3/1 20/4/1
f 20/4/2 54/3/2 55/5/2 21/6/2
f 90/7/3 91/8/3 125/9/3 124/10/3
f 77/11/4 78/12/4 112/13/4 111/14/4
f 91/8/5 92/15/5 126/16/5 125/9/5
f 78/12/6 79/17/6 113/18/6 112/13/6
f 92/15/7 93/19/7 127/20/7 126/16/7
f 79/17/8 80/21/8 114/22/8 113/18/8
f 93/19/9 94/23/9 128/24/9 127/20/9
f 80/21/10 81/25/10 115/26/10 114/22/10
f 94/23/11 95/27/11 129/28/11 128/24/11
f 81/25/12 82/29/12 116/30/12 115/26/12
f 95/27/13 96/31/13 130/32/13 129/28/13
f 82/29/14 83/33/14 117/34/14 116/30/14
f 70/35/15 69/36/15 103/37/15 104/38/15
f 96/31/16 97/39/16 131/40/16 130/32/16
f 83/33/17 84/41/17 118/42/17 117/34/17
f 69/36/1 71/43/1 105/44/1 103/37/1
f 97/39/18 98/45/18 132/46/18 131/40/18
f 84/41/19 85/47/19 119/48/19 118/42/19
f 71/43/2 72/49/2 106/50/2 105/44/2
f 98/45/20 99/51/20 133/52/20 132/46/20
f 85/47/21 86/53/21 120/54/21 119/48/21
f 72/49/22 73/55/22 107/56/22 106/50/22
f 99/51/23 100/57/23 134/58/23 133/52/23
f 86/53/24 87/59/24 121/60/24 120/54/24
f 73/55/25 74/61/25 108/62/25 107/56/25
f 100/57/26 101/63/26 135/64/26 134/58/26
f 87/59/27 88/65/27 122/66/27 121/60/27
f 74/61/28 75/67/28 109/68/28 108/62/28
f 101/63/29 102/69/29 136/70/29 135/64/29
f 88/65/30 89/71/30 123/72/30 122/66/30
f 75/67/31 76/73/31 110/74/31 109/68/31
f 102/69/32 70/35/32 104/38/32 136/70/32
f 89/71/33 90/7/33 124/10/33 123/72/33
f 76/73/34 77/11/34 111/14/34 110/74/34
f 1/75/35 2/76/35 69/36/35 70/35/35
f 2/76/35 3/77/35 71/43/35 69/36/35
f 3/77/35 4/78/35 72/49/35 71/43/35
f 4/78/35 5/79/35 73/55/35 72/49/35
f 5/79/35 6/80/35 74/61/35 73/55/35
f 6/80/35 7/81/35 75/67/35 74/61/35
f 7/81/35 8/82/35 76/73/35 75/67/35
f 8/82/35 9/83/35 77/11/35 76/73/35
f 9/83/35 10/84/35 78/12/35 77/11/35
f 10/84/35 11/85/35 79/17/35 78/12/35
f 11/85/35 12/86/35 80/21/35 79/17/35
f 12/86/35 13/87/35 81/25/35 80/21/35
f 13/87/35 14/88/35 82/29/35 81/25/35
f 14/88/35 15/89/35 83/33/35 82/29/35
f 15/89/35 16/90/35 84/41/35 83/33/35
f 16/90/35 17/91/35 85/47/35 84/41/35
f 17/91/35 18/92/35 86/53/35 85/47/35
f 18/92/35 19/1/35 87/59/35 86/53/35
f 19/1/35 20/4/35 88/65/35 87/59/35
f 20/4/35 21/6/35 89/71/35 88/65/35
f 21/6/35 22/93/35 90/7/35 89/71/35
f 22/93/35 23/94/35 91/8/35 90/7/35
f 23/94/35 24/95/35 92/15/35 91/8/35
f 24/95/35 25/96/35 93/19/35 92/15/35
f 25/96/35 26/97/35 94/23/35 93/19/35
f 26/97/35 27/98/35 95/27/35 94/23/35
f 27/98/35 28/99/35 96/31/35 95/27/35
f 28/99/35 29/100/35 97/39/35 96/31/35
f 29/100/35 30/101/35 98/45/35 97/39/35
f 30/101/35 31/102/35 99/51/35 98/45/35
f 31/102/35 32/103/35 100/57/35 99/51/35
f 32/103/35 33/104/35 101/63/35 100/57/35
f 33/104/35 34/105/35 102/69/35 101/63/35
f 34/105/35 1/75/35 70/35/35 102/69/35
f 35/106/36 36/107/36 104/38/36 103/37/36
f 37/108/36 35/106/36 103/37/36 105/44/36
f 38/109/36 37/108/36 105/44/36 106/50/36
f 39/110/36 38/109/36 106/50/36 107/56/36
f 40/111/36 39/110/36 107/56/36 108/62/36
f 41/112/36 40/111/36 108/62/36 109/68/36
f 42/113/36 41/112/36 109/68/36 110/74/36
f 43/114/36 42/113/36 110/74/36 111/14/36
f 44/115/36 43/114/36 111/14/36 112/13/36
f 45/116/36 44/115/36 112/13/36 113/18/36
f 46/117/36 45/116/36 113/18/36 114/22/36
f 47/118/36 46/117/36 114/22/36 115/26/36
f 48/119/36 47/118/36 115/26/36 116/30/36
f 49/120/36 48/119/36 116/30/36 117/34/36
f 50/121/36 49/120/36 117/34/36 118/42/36
f 51/122/36 50/121/36 118/42/36 119/48/36
f 52/123/36 51/122/36 119/48/36 120/54/36
f 53/2/36 52/123/36 120/54/36 121/60/36
f 54/3/36 53/2/36 121/60/36 122/66/36
f 55/5/36 54/3/36 122/66/36 123/72/36
f 56/124/36 55/5/36 123/72/36 124/10/36
f 57/125/36 56/124/36 124/10/36 125/9/36
f 58/126/36 57/125/36 125/9/36 126/16/36
f 59/127/36 58/126/36 126/16/36 127/20/36
f 60/128/36 59/127/36 127/20/36 128/24/36
f 61/129/36 60/128/36 128/24/36 129/28/36
f 62/130/36 61/129/36 129/28/36 130/32/36
f 63/131/36 62/130/36 130/32/36 131/40/36
f 64/132/36 63/131/36 131/40/36 132/46/36
f 65/133/36 64/132/36 132/46/36 133/52/36
f 66/134/36 65/133/36 133/52/36 134/58/36
f 67/135/36 66/134/36 134/58/36 135/64/36
f 68/136/36 67/135/36 135/64/36 136/70/36
f 36/107/36 68/136/36 136/70/36 104/38/36
f 21/6/22 55/5/22 56/124/22 22/93/22
f 22/93/25 56/124/25 57/125/25 23/94/25
f 23/94/28 57/125/28 58/126/28 24/95/28
f 24/95/31 58/126/31 59/127/31 25/96/31
f 25/96/34 59/127/34 60/128/34 26/97/34
f 26/97/4 60/128/4 61/129/4 27/98/4
f 18/92/15 52/123/15 53/2/15 19/1/15
f 17/91/32 51/122/32 52/123/32 18/92/32
f 16/90/29 50/121/29 51/122/29 17/91/29
f 15/89/26 49/120/26 50/121/26 16/90/26
f 14/88/23 48/119/23 49/120/23 15/89/23
f 13/87/20 47/118/20 48/119/20 14/88/20
f 12/86/18 46/117/18 47/118/18 13/87/18
f 11/85/16 45/116/16 46/117/16 12/86/16
f 10/84/37 44/115/37 45/116/37 11/85/37
f 9/83/11 43/114/11 44/115/11 10/84/11
f 8/82/9 42/113/9 43/114/9 9/83/9
f 7/81/7 41/112/7 42/113/7 8/82/7
f 6/80/5 40/111/5 41/112/5 7/81/5
f 5/79/3 39/110/3 40/111/3 6/80/3
f 4/78/33 38/109/33 39/110/33 5/79/33
f 3/77/30 37/108/30 38/109/30 4/78/30
f 2/76/27 35/106/27 37/108/27 3/77/27
f 1/75/24 36/107/24 35/106/24 2/76/24
f 34/105/21 68/136/21 36/107/21 1/75/21
f 33/104/19 67/135/19 68/136/19 34/105/19
f 32/103/17 66/134/17 67/135/17 33/104/17
f 31/102/14 65/133/14 66/134/14 32/103/14
f 30/101/12 64/132/12 65/133/12 31/102/12
f 29/100/10 63/131/10 64/132/10 30/101/10
f 28/99/8 62/130/8 63/131/8 29/100/8
f 27/98/38 61/129/38 62/130/38 28/99/38
